<?xml version="1.0" encoding="UTF-8"?>
<!DOCTYPE svg PUBLIC "-//W3C//DTD SVG 1.1//EN" "http://www.w3.org/Graphics/SVG/1.1/DTD/svg11.dtd">
<!-- Creator: CorelDRAW 2021 (64-Bit Evaluation Version) -->
<svg xmlns="http://www.w3.org/2000/svg" xml:space="preserve" width="1.3038in" height="0.509071in" version="1.1" style="shape-rendering:geometricPrecision; text-rendering:geometricPrecision; image-rendering:optimizeQuality; fill-rule:evenodd; clip-rule:evenodd"
viewBox="0 0 1137.64 444.19"
 xmlns:xlink="http://www.w3.org/1999/xlink"
 xmlns:xodm="http://www.corel.com/coreldraw/odm/2003">
 <defs>
  <style type="text/css">
   <![CDATA[
    .fil3 {fill:#FEFEFE}
    .fil2 {fill:#2B2B2A;fill-rule:nonzero}
    .fil0 {fill:#727272;fill-rule:nonzero}
    .fil1 {fill:#BD3523;fill-rule:nonzero}
   ]]>
  </style>
 </defs>
 <g id="Layer_x0020_1">
  <metadata id="CorelCorpID_0Corel-Layer"/>
  <polygon class="fil0" points="10.81,282.99 0.34,300.83 1126.37,300.39 1137.35,282.07 "/>
  <path class="fil1" d="M0 425.65l9.96 0 0 -36.3 16.14 0 21.06 36.3 11.34 0 -22.44 -38.05 0 -0.63c10.47,-3.27 16.5,-10.08 16.5,-22.17 0,-15.24 -9.33,-23.7 -27.99,-23.7l-24.57 0 0 84.55 0 0zm9.96 -44.11l0 -32.01 13.86 0c12.99,0 18.15,4.92 18.15,15.36 0,10.95 -4.8,16.65 -18.03,16.65l-13.98 0 -0 0zm86.95 45.25c10.08,0 17.28,-3.15 21.06,-5.79l0 -7.17c-5.67,2.64 -11.22,4.65 -19.53,4.65 -13.35,0 -20.79,-6.03 -21.3,-21.66l42.6 0 0 -5.43c0,-19.41 -8.07,-29.37 -25.2,-29.37 -14.37,0 -27.21,9.69 -27.21,31.5l0 1.77c0,19.53 9.96,31.5 29.61,31.5l-0.02 0zm-2.64 -56.95c10.2,0 15.39,5.67 15.39,19.29l-32.52 0c1.02,-14.73 9.33,-19.29 17.13,-19.29l0 0zm62.25 56.95c8.43,0 14.49,-2.64 18.27,-6.3l0.51 0 1.14 5.16 8.07 0 0 -90.22 -9.69 0 0 30.75c-3.39,-2.01 -8.7,-4.17 -16.38,-4.17 -16.14,0 -27.84,9.84 -27.84,32.52l0 1.65c0,23.07 13.47,30.63 25.95,30.63l-0.02 -0.03zm2.91 -7.93c-11.22,0 -18.78,-5.55 -18.78,-23.07l0 -2.52c0,-16.89 7.17,-23.07 19.02,-23.07 6.42,0 12.24,1.77 15.12,4.02l0 39.33c-3.15,2.52 -8.07,5.28 -15.39,5.28l0.02 0.03z"/>
  <path class="fil0" d="M252.8 425.65l9.84 0 0 -76.11 25.83 0 0 -8.43 -61.5 0 0 8.43 25.83 0 0 76.11 -0 0zm74.11 1.14c10.08,0 17.26,-3.15 21.03,-5.79l0 -7.17c-5.67,2.64 -11.22,4.65 -19.53,4.65 -13.35,0 -20.79,-6.03 -21.3,-21.66l42.6 0 0 -5.43c0,-19.41 -8.07,-29.37 -25.2,-29.37 -14.37,0 -27.21,9.69 -27.21,31.5l0 1.77c0,19.53 9.96,31.5 29.61,31.5l0 0zm-2.64 -56.95c10.2,0 15.39,5.67 15.39,19.29l-32.52 0c1.02,-14.73 9.33,-19.29 17.13,-19.29l0 0zm55.2 56.95c8.43,0 13.74,-3.03 16.65,-6.54l0.63 0 1.02 5.43 7.83 0 0 -45.24c0,-12.72 -7.68,-18.39 -21.42,-18.39 -7.2,0 -13.23,1.14 -18.66,3.39l0 6.93c3.9,-1.14 8.82,-2.01 14.88,-2.01 11.22,0 15.51,2.52 15.51,12.21l0 6.54 -16.89 2.01c-11.97,1.38 -19.02,7.17 -19.02,18.15 0,11.73 8.19,17.52 19.53,17.52l-0.04 0zm2.4 -7.56c-7.2,0 -11.85,-3.39 -11.85,-10.2 0,-7.17 3.78,-10.32 11.46,-11.1l14.37 -1.65 0 18.39c-2.64,2.64 -8.19,4.53 -13.98,4.53l-0 0.03zm41.85 6.42l9.57 0 0 -50.79c5.04,-2.4 10.59,-4.53 15.87,-4.53 8.31,0 11.34,3.15 11.34,10.71l0 44.61 9.57 0 0 -46.62c0,-1.53 -0.12,-2.64 -0.36,-4.17 5.91,-2.64 11.22,-4.53 16.14,-4.53 8.46,0 11.46,3.15 11.46,10.71l0 44.61 9.45 0 0 -46.62c0,-12.09 -6.3,-17.01 -17.13,-17.01 -7.05,0 -14.37,2.52 -21.18,6.93l-0.51 0c-2.91,-4.65 -7.95,-6.93 -15,-6.93 -7.05,0 -13.74,2.91 -19.53,6.54l-0.51 0 0 -5.43 -9.21 0 0 62.5 0.03 0.02zm101.56 0l9.57 0 0 -62.37 -9.57 0 0 62.37zm-0.12 -74.98l9.84 0 0 -10.08 -9.84 0 0 10.08zm28.35 74.98l9.57 0 0 -50.79c5.16,-2.4 11.73,-4.53 17.64,-4.53 9.96,0 12.6,3.15 12.6,10.71l0 44.61 9.57 0 0 -46.62c0,-12.09 -5.94,-17.01 -18.15,-17.01 -7.68,0 -15.75,2.76 -21.54,6.54l-0.51 0 0 -5.43 -9.21 0 0 62.5 0.03 0.02zm89.35 18.54c21.3,0 29.86,-8.43 29.86,-19.14 0,-11.61 -8.43,-15 -19.77,-15l-17.26 0c-4.17,0 -6.18,-1.26 -6.18,-4.65 0,-2.01 1.26,-3.54 2.91,-5.04 3.27,1.14 6.81,1.77 10.71,1.77 13.11,0 23.43,-6.69 23.43,-20.04l0 -0.12c0,-4.92 -1.62,-8.7 -4.53,-11.46l11.22 0 0 -7.44 -21.18 0c-2.76,-0.63 -5.67,-1.02 -8.82,-1.02 -13.74,0 -23.56,7.17 -23.56,20.16l0 0.24c0,7.44 3.03,12.48 7.83,15.63 -4.8,3.54 -7.05,6.42 -7.05,10.32 0,4.17 2.76,6.81 6.3,7.83l0 0.63c-6.42,2.13 -11.85,6.03 -11.85,12.72 0,9.09 8.94,14.61 27.99,14.61l-0.05 0zm-0.24 -7.56c-12.36,0 -17.64,-2.76 -17.64,-8.31 0,-5.28 3.66,-8.07 8.43,-9.69l18.03 0c8.19,0 11.22,1.89 11.22,7.68 0,6.54 -5.28,10.32 -20.04,10.32l0 0zm0.51 -42.09c-8.31,0 -13.86,-4.02 -13.86,-12.21l0 -0.63c0,-7.8 5.28,-12.36 13.86,-12.36 8.43,0 13.74,3.9 13.74,12.48l0 0.63c0,8.07 -5.04,12.09 -13.74,12.09zm94.63 32.64c19.8,0 28.35,-9.84 28.35,-24.57 0,-14.25 -7.95,-19.53 -20.41,-23.82l-8.31 -2.64c-9.57,-3.27 -12.6,-6.81 -12.6,-14.88 0,-8.07 5.79,-13.11 16.14,-13.11 9.33,0 15.99,2.4 20.91,4.68l0 -8.43c-4.65,-2.28 -10.59,-4.65 -20.55,-4.65 -17.64,0 -26.34,9.33 -26.34,22.44 0,12.84 6.69,18.9 18.54,22.8l8.19 2.91c10.2,3.27 14.37,6.81 14.37,15.51 0,9.21 -5.67,15.24 -18.66,15.24 -8.94,0 -17.26,-2.28 -23.7,-5.55l0 8.43c5.67,3.15 13.74,5.67 24.06,5.67l0.01 -0.03zm69.45 -0.38c10.08,0 17.28,-3.15 21.06,-5.79l0 -7.17c-5.67,2.64 -11.22,4.65 -19.53,4.65 -13.35,0 -20.79,-6.03 -21.3,-21.66l42.6 0 0 -5.43c0,-19.41 -8.07,-29.37 -25.2,-29.37 -14.37,0 -27.21,9.69 -27.21,31.5l0 1.77c0,19.53 9.96,31.5 29.61,31.5l-0.02 0zm-2.64 -56.95c10.2,0 15.39,5.67 15.39,19.29l-32.52 0c1.02,-14.73 9.33,-19.29 17.13,-19.29l0 0zm39.96 55.83l9.69 0 0 -49.14c4.41,-3.15 10.47,-5.43 16.77,-5.43 1.02,0 2.91,0.12 4.53,0.39l0 -8.7c-0.63,-0.12 -2.4,-0.24 -3.78,-0.24 -7.05,0 -13.86,3.66 -17.4,7.68l-0.63 0 0 -7.05 -9.21 0 0 62.5 0.02 0z"/>
  <path class="fil0" d="M906.36 425.65l9.57 0 23.19 -62.5 -9.45 0 -18.03 50.28 -0.51 0 -17.52 -50.28 -10.47 0 23.19 62.5 0.02 0zm45.37 0l9.57 0 0 -62.37 -9.57 0 0 62.37zm-0.12 -74.98l9.84 0 0 -10.08 -9.84 0 0 10.08zm53.31 76.12c8.7,0 14.25,-2.52 18.27,-4.92l0 -7.8c-3.15,1.77 -8.7,4.41 -17.13,4.41 -13.35,0 -20.04,-7.17 -20.04,-23.19l0 -3.03c0,-14.37 7.44,-22.05 18.78,-22.05 8.19,0 12.21,1.53 17.76,4.02l0 -8.07c-4.17,-2.64 -9.06,-4.17 -17.26,-4.17 -16.14,0 -29.25,9.57 -29.25,31.77l0 1.89c0,20.55 10.95,31.12 28.86,31.12l-0 0.02zm57.48 0c10.08,0 17.26,-3.15 21.06,-5.79l0 -7.17c-5.67,2.64 -11.22,4.65 -19.53,4.65 -13.35,0 -20.79,-6.03 -21.3,-21.66l42.6 0 0 -5.43c0,-19.41 -8.07,-29.37 -25.2,-29.37 -14.37,0 -27.21,9.69 -27.21,31.5l0 1.77c0,19.53 9.96,31.5 29.61,31.5l-0.02 0zm-2.64 -56.95c10.2,0 15.39,5.67 15.39,19.29l-32.52 0c1.02,-14.73 9.33,-19.29 17.13,-19.29l0 0zm55.83 56.83c13.74,0 22.05,-6.54 22.05,-18.39 0,-10.83 -4.92,-14.88 -16.89,-18.03l-6.3 -1.77c-6.69,-1.89 -9.33,-4.17 -9.33,-9.57 0,-5.79 4.17,-8.7 12.6,-8.7 6.93,0 13.23,1.65 16.5,3.27l0 -7.83c-3.27,-1.77 -8.7,-3.66 -17.01,-3.66 -14.37,0 -21.3,7.17 -21.3,17.76 0,10.59 6.18,14.73 15.24,17.26l6.18 1.65c7.95,2.28 10.83,4.8 10.83,10.59 0,5.67 -4.02,9.21 -13.98,9.21 -8.82,0 -13.35,-1.89 -18.78,-3.9l0 7.68c5.16,2.91 11.97,4.41 20.16,4.41l0.03 0.01z"/>
  <path class="fil2" d="M53.97 242.67c36.52,0 58.64,-17.42 58.64,-48.92 0,-28.81 -13.06,-39.55 -44.9,-47.93l-16.77 -4.7c-17.76,-5.02 -24.79,-11.05 -24.79,-25.47 0,-15.41 11.05,-23.12 33.51,-23.12 18.44,0 35.19,4.36 43.91,8.73l0 -20.79c-8.73,-4.7 -23.12,-9.72 -45.24,-9.72 -38.21,0 -56.63,19.1 -56.63,47.26 0,28.16 16.43,39.21 40.54,45.92l16.43 4.36c21.11,6.03 28.81,12.74 28.81,28.16 0,15.07 -10.74,24.45 -37.2,24.45 -23.46,0 -35.52,-5.02 -49.92,-10.4l0 20.45c13.74,7.71 31.84,11.73 53.63,11.73l-0.03 -0.01zm225.53 0.34c22.46,0 36.52,-8.05 44.23,-17.42l1.67 0 2.69 14.42 20.77 0 0 -120.32c0,-33.85 -20.45,-48.92 -56.97,-48.92 -19.1,0 -35.19,3.01 -49.61,9.04l0 18.44c10.4,-3.01 23.46,-5.36 39.55,-5.36 29.83,0 41.22,6.71 41.22,32.5l0 17.42 -44.9 5.36c-31.84,3.68 -50.6,19.1 -50.6,48.25 0,31.16 21.79,46.58 51.93,46.58l0.02 0.02zm6.37 -20.11c-19.1,0 -31.5,-9.04 -31.5,-27.14 0,-19.1 10.05,-27.48 30.48,-29.49l38.21 -4.36 0 48.92c-7.03,7.03 -21.79,12.07 -37.2,12.07l0 0zm153.49 19.77c36.52,0 58.64,-17.42 58.64,-48.92 0,-28.81 -13.06,-39.55 -44.9,-47.93l-16.77 -4.7c-17.76,-5.02 -24.79,-11.05 -24.79,-25.47 0,-15.41 11.05,-23.12 33.51,-23.12 18.44,0 35.19,4.36 43.91,8.73l0 -20.79c-8.73,-4.7 -23.12,-9.72 -45.24,-9.72 -38.21,0 -56.63,19.1 -56.63,47.26 0,28.16 16.43,39.21 40.54,45.92l16.43 4.36c21.11,6.03 28.81,12.74 28.81,28.16 0,15.07 -10.74,24.45 -37.2,24.45 -23.46,0 -35.52,-5.02 -49.92,-10.4l0 20.45c13.74,7.71 31.84,11.73 53.63,11.73l-0.03 -0.01zm96.86 -2.69l25.47 0 0 -134.71c13.74,-6.71 31.16,-12.41 46.92,-12.41 26.49,0 33.51,8.39 33.51,28.47l0 118.64 25.47 0 0 -123.66c0,-32.18 -15.75,-45.58 -48.25,-45.58 -20.45,0 -41.56,7.03 -55.98,17.42l-1.67 0 0 -88.13 -25.47 0 0 239.95z"/>
  <path class="fil1" d="M758.06 242.67c36.52,0 58.64,-17.42 58.64,-48.92 0,-28.81 -13.06,-39.55 -44.9,-47.93l-16.77 -4.7c-17.76,-5.02 -24.79,-11.05 -24.79,-25.47 0,-15.41 11.05,-23.12 33.51,-23.12 18.44,0 35.19,4.36 43.91,8.73l0 -20.79c-8.73,-4.7 -23.12,-9.72 -45.24,-9.72 -38.21,0 -56.63,19.1 -56.63,47.26 0,28.16 16.43,39.21 40.54,45.92l16.43 4.36c21.11,6.03 28.81,12.74 28.81,28.16 0,15.07 -10.74,24.45 -37.2,24.45 -23.46,0 -35.52,-5.02 -49.92,-10.4l0 20.45c13.74,7.71 31.84,11.73 53.63,11.73l-0.03 -0.01zm165.22 0.34c26.8,0 45.92,-8.39 55.98,-15.41l0 -19.1c-15.07,7.03 -29.83,12.41 -51.95,12.41 -35.52,0 -55.3,-16.09 -56.63,-57.65l113.26 0 0 -14.42c0,-51.61 -21.45,-78.08 -67.03,-78.08 -38.21,0 -72.38,25.81 -72.38,83.77l0 4.7c0,51.95 26.49,83.77 78.76,83.77l0 0zm-7.03 -151.48c27.14,0 40.88,15.07 40.88,51.28l-86.46 0c2.69,-39.21 24.79,-51.28 45.58,-51.28zm172.59 151.48c23.12,0 37.88,-6.71 48.59,-13.06l0 -20.77c-8.39,4.7 -23.12,11.73 -45.58,11.73 -35.52,0 -53.29,-19.1 -53.29,-61.67l0 -8.05c0,-38.21 19.77,-58.64 49.92,-58.64 21.79,0 32.5,4.02 47.26,10.74l0 -21.45c-11.05,-7.03 -24.14,-11.05 -45.92,-11.05 -42.89,0 -77.74,25.47 -77.74,84.45l0 5.02c0,54.62 29.15,82.78 76.75,82.78l0.02 -0.02z"/>
  <polygon class="fil1" points="199.88,0.12 228.47,0 162.8,242.74 134.04,242.74 "/>
  <path class="fil3" d="M112.61 193.74c0,-28.81 -13.06,-39.55 -44.9,-47.93l-16.77 -4.7c-17.76,-5.02 -24.79,-11.05 -24.79,-25.47 0,-15.41 11.05,-23.12 33.51,-23.12 18.44,0 35.19,4.36 43.91,8.73l0 -20.79c-8.73,-4.7 -23.12,-9.72 -45.24,-9.72 -38.21,0 -56.63,19.1 -56.63,47.26 0,28.16 16.43,39.21 40.54,45.92l16.43 4.36c21.11,6.03 28.81,12.74 28.81,28.16 0,15.07 -10.74,24.45 -37.2,24.45 -23.46,0 -35.52,-5.02 -49.92,-10.4l0 20.45c13.74,7.71 31.84,11.73 53.6,11.72 36.52,0 58.64,-17.42 58.64,-48.92z"/>
  <path class="fil3" d="M323.08 161.9l0 48.92c-7.03,7.03 -21.79,12.07 -37.2,12.07 -19.1,0 -31.5,-9.04 -31.5,-27.14 0,-19.1 10.05,-27.48 30.48,-29.49l38.21 -4.36zm-44.93 -13.74c-31.84,3.68 -50.6,19.1 -50.6,48.25 0,31.16 21.79,46.58 51.95,46.6 22.46,0 36.52,-8.05 44.23,-17.42l1.67 0 2.69 14.42 20.77 0 0 -120.32c0,-33.85 -20.45,-48.92 -56.97,-48.92 -19.1,0 -35.19,3.01 -49.61,9.04l0 18.44c10.4,-3.01 23.46,-5.36 39.55,-5.36 29.83,0 41.22,6.71 41.22,32.5l0 17.42 -44.9 5.36z"/>
  <path class="fil3" d="M444.08 168.28c21.11,6.03 28.81,12.74 28.81,28.16 0,15.07 -10.74,24.45 -37.2,24.45 -23.46,0 -35.52,-5.02 -49.92,-10.4l0 20.45c13.74,7.71 31.84,11.73 53.6,11.72 36.52,0 58.64,-17.42 58.64,-48.92 0,-28.81 -13.06,-39.55 -44.9,-47.93l-16.77 -4.7c-17.76,-5.02 -24.79,-11.05 -24.79,-25.47 0,-15.41 11.05,-23.12 33.51,-23.12 18.44,0 35.19,4.36 43.91,8.73l0 -20.79c-8.73,-4.7 -23.12,-9.72 -45.24,-9.72 -38.21,0 -56.63,19.1 -56.63,47.26 0,28.16 16.43,39.21 40.54,45.92l16.43 4.36z"/>
  <path class="fil3" d="M642.13 121.34l0 118.64 25.47 0 0 -123.66c0,-32.18 -15.75,-45.58 -48.25,-45.58 -20.45,0 -41.56,7.03 -55.98,17.42l-1.67 0 0 -88.13 -25.47 0 0 239.95 25.47 0 0 -134.71c13.74,-6.71 31.16,-12.41 46.92,-12.41 26.49,0 33.51,8.39 33.51,28.47z"/>
  <polygon class="fil3" points="262.64,425.65 262.64,349.54 288.47,349.54 288.47,341.1 226.97,341.1 226.97,349.54 252.8,349.54 252.8,425.65 "/>
  <path class="fil3" d="M297.29 395.29c0,19.53 9.96,31.5 29.62,31.5 10.08,0 17.26,-3.15 21.03,-5.79l0 -7.17c-5.67,2.64 -11.22,4.65 -19.53,4.65 -13.35,0 -20.79,-6.03 -21.3,-21.66l42.6 0 0 -5.43c0,-19.41 -8.07,-29.37 -25.2,-29.37 -14.37,0 -27.21,9.69 -27.21,31.5l0 1.77zm42.36 -6.16l-32.52 0c1.02,-14.73 9.33,-19.29 17.14,-19.29 10.2,0 15.39,5.67 15.39,19.29z"/>
  <path class="fil3" d="M395.85 396.28l0 18.39c-2.64,2.64 -8.19,4.53 -13.98,4.56 -7.2,0 -11.85,-3.39 -11.85,-10.2 0,-7.17 3.78,-10.32 11.46,-11.1l14.37 -1.65zm-16.85 -5.16c-11.97,1.38 -19.02,7.17 -19.02,18.15 0,11.73 8.19,17.52 19.49,17.52 8.43,0 13.74,-3.03 16.65,-6.54l0.63 0 1.02 5.43 7.83 0 0 -45.24c0,-12.72 -7.68,-18.39 -21.42,-18.39 -7.2,0 -13.23,1.14 -18.66,3.39l0 6.93c3.9,-1.14 8.82,-2.01 14.88,-2.01 11.22,0 15.51,2.52 15.51,12.21l0 6.54 -16.89 2.01z"/>
  <path class="fil3" d="M423.68 363.14l0.03 62.51 9.57 0 0 -50.79c5.04,-2.4 10.59,-4.53 15.87,-4.53 8.31,0 11.34,3.15 11.34,10.71l0 44.61 9.57 0 0 -46.62c0,-1.53 -0.12,-2.64 -0.36,-4.17 5.91,-2.64 11.22,-4.53 16.14,-4.53 8.46,0 11.46,3.15 11.46,10.71l0 44.61 9.45 0 0 -46.62c0,-12.09 -6.3,-17.01 -17.13,-17.01 -7.05,0 -14.37,2.52 -21.18,6.93l-0.51 0c-2.91,-4.65 -7.95,-6.93 -15,-6.93 -7.05,0 -13.74,2.91 -19.53,6.54l-0.51 0 0 -5.43 -9.21 0z"/>
  <polygon class="fil3" points="525.27,363.28 525.27,425.65 534.85,425.65 534.85,363.28 "/>
  <polygon class="fil3" points="525.15,350.67 534.99,350.67 534.99,340.59 525.15,340.59 "/>
  <path class="fil3" d="M553.47 363.13l0.03 62.52 9.57 0 0 -50.79c5.16,-2.4 11.73,-4.53 17.64,-4.53 9.96,0 12.6,3.15 12.6,10.71l0 44.61 9.57 0 0 -46.62c0,-12.09 -5.94,-17.01 -18.15,-17.01 -7.68,0 -15.75,2.76 -21.54,6.54l-0.51 0 0 -5.43 -9.21 0z"/>
  <path class="fil3" d="M619.69 382.45c0,7.44 3.03,12.48 7.83,15.63 -4.8,3.54 -7.05,6.42 -7.05,10.32 0,4.17 2.76,6.81 6.3,7.83l0 0.63c-6.42,2.13 -11.85,6.03 -11.85,12.72 0,9.08 8.93,14.6 27.94,14.61 0.02,0 0.03,0 0.05,0 21.27,-0.01 29.81,-8.44 29.81,-19.14 0,-11.61 -8.43,-15 -19.77,-15l-17.26 0c-4.17,0 -6.18,-1.26 -6.18,-4.65 0,-2.01 1.26,-3.54 2.91,-5.04 3.27,1.14 6.81,1.77 10.71,1.77 13.11,0 23.43,-6.69 23.43,-20.04l0 -0.12c0,-4.92 -1.62,-8.7 -4.53,-11.46l11.22 0 0 -7.44 -21.18 0c-2.76,-0.63 -5.67,-1.02 -8.82,-1.02 -13.74,0 -23.56,7.17 -23.56,20.16l0 0.24zm13.72 36.18l18.03 0c8.19,0 11.22,1.89 11.22,7.68 0,6.54 -5.28,10.32 -20.04,10.33 -12.36,0 -17.64,-2.76 -17.64,-8.31 0,-5.28 3.66,-8.07 8.43,-9.69zm9.72 -24.08c-8.31,0 -13.86,-4.02 -13.86,-12.21l0 -0.63c0,-7.8 5.28,-12.36 13.86,-12.36 8.43,0 13.74,3.9 13.74,12.48l0 0.63c0,8.07 -5.04,12.09 -13.74,12.09z"/>
  <path class="fil3" d="M756.04 403.41c0,9.21 -5.67,15.24 -18.66,15.24 -8.94,0 -17.26,-2.28 -23.7,-5.55l0 8.43c5.67,3.15 13.74,5.67 24.07,5.64 19.8,0 28.35,-9.84 28.35,-24.57 0,-14.25 -7.95,-19.53 -20.41,-23.82l-8.31 -2.64c-9.57,-3.27 -12.6,-6.81 -12.6,-14.88 0,-8.07 5.79,-13.11 16.14,-13.11 9.33,0 15.99,2.4 20.91,4.68l0 -8.43c-4.65,-2.28 -10.59,-4.65 -20.55,-4.65 -17.64,0 -26.34,9.33 -26.34,22.44 0,12.84 6.69,18.9 18.54,22.8l8.19 2.91c10.2,3.27 14.37,6.81 14.37,15.51z"/>
  <path class="fil3" d="M777.61 395.29c0,19.53 9.96,31.5 29.59,31.5 10.08,0 17.28,-3.15 21.06,-5.79l0 -7.17c-5.67,2.64 -11.22,4.65 -19.53,4.65 -13.35,0 -20.79,-6.03 -21.3,-21.66l42.6 0 0 -5.43c0,-19.41 -8.07,-29.37 -25.2,-29.37 -14.37,0 -27.21,9.69 -27.21,31.5l0 1.77zm42.34 -6.16l-32.52 0c1.02,-14.73 9.33,-19.29 17.14,-19.29 10.2,0 15.39,5.67 15.39,19.29z"/>
  <path class="fil3" d="M844.5 363.18l0.02 62.5 9.69 0 0 -49.14c4.41,-3.15 10.47,-5.43 16.77,-5.43 1.02,0 2.91,0.12 4.53,0.39l0 -8.7c-0.63,-0.12 -2.4,-0.24 -3.78,-0.24 -7.05,0 -13.86,3.66 -17.4,7.68l-0.63 0 0 -7.05 -9.21 0z"/>
  <polygon class="fil3" points="883.15,363.15 906.36,425.65 915.93,425.65 939.12,363.15 929.67,363.15 911.64,413.44 911.14,413.44 893.62,363.15 "/>
  <polygon class="fil3" points="951.73,363.28 951.73,425.65 961.3,425.65 961.3,363.28 "/>
  <path class="fil3" d="M1005.3 362c-16.14,0 -29.25,9.57 -29.25,31.77l0 1.89c0,20.55 10.95,31.12 28.86,31.14 8.7,0 14.25,-2.52 18.27,-4.92l0 -7.8c-3.15,1.77 -8.7,4.41 -17.13,4.41 -13.35,0 -20.04,-7.17 -20.04,-23.19l0 -3.03c0,-14.37 7.44,-22.05 18.78,-22.05 8.19,0 12.21,1.53 17.76,4.02l0 -8.07c-4.17,-2.64 -9.06,-4.17 -17.26,-4.17z"/>
  <path class="fil3" d="M1060.02 362.02c-14.37,0 -27.21,9.69 -27.21,31.5l0 1.77c0,19.53 9.96,31.5 29.59,31.5 10.08,0 17.26,-3.15 21.06,-5.79l0 -7.17c-5.67,2.64 -11.22,4.65 -19.53,4.65 -13.35,0 -20.79,-6.03 -21.3,-21.66l42.6 0 0 -5.43c0,-19.41 -8.07,-29.37 -25.2,-29.37zm15.12 27.11l-32.52 0c1.02,-14.73 9.33,-19.29 17.14,-19.29 10.2,0 15.39,5.67 15.39,19.29z"/>
  <path class="fil3" d="M1095.91 379.76c0,10.59 6.18,14.73 15.24,17.26l6.18 1.65c7.95,2.28 10.83,4.8 10.83,10.59 0,5.67 -4.02,9.21 -13.98,9.21 -8.82,0 -13.35,-1.89 -18.78,-3.9l0 7.68c5.16,2.91 11.97,4.41 20.19,4.42 13.74,0 22.05,-6.54 22.05,-18.39 0,-10.83 -4.92,-14.88 -16.89,-18.03l-6.3 -1.77c-6.69,-1.89 -9.33,-4.17 -9.33,-9.57 0,-5.79 4.17,-8.7 12.6,-8.7 6.93,0 13.23,1.65 16.5,3.27l0 -7.83c-3.27,-1.77 -8.7,-3.66 -17.01,-3.66 -14.37,0 -21.3,7.17 -21.3,17.76z"/>
  <polygon class="fil3" points="961.44,350.67 961.44,340.59 951.6,340.59 951.6,350.67 "/>
  <polygon class="fil3" points="0.34,300.83 1126.37,300.39 1137.35,282.07 10.81,282.99 "/>
 </g>
</svg>
